<svg id="Capa_1" enable-background="new 0 0 512.088 512.088" height="512" viewBox="0 0 512.088 512.088" width="512" xmlns="http://www.w3.org/2000/svg"><g><g><path d="m464.94 504.588h-417.791c-9.983 0-18.075-8.092-18.075-18.075v-460.938c0-9.983 8.092-18.075 18.075-18.075h417.79c9.983 0 18.075 8.092 18.075 18.075v460.938c.001 9.982-8.092 18.075-18.074 18.075z" fill="#c8effe"/></g><g><path d="m483.019 25.577v460.935c0 9.98-8.094 18.074-18.084 18.074h-19.96c9.99 0 18.084-8.094 18.084-18.074v-460.935c0-9.98-8.094-18.074-18.084-18.074h19.96c9.99 0 18.084 8.094 18.084 18.074z" fill="#99e6fc"/></g><g><path d="m464.94 0h-417.791c-14.103 0-25.575 11.473-25.575 25.575v460.938c0 14.102 11.473 25.575 25.575 25.575h75.477c4.143 0 7.5-3.358 7.5-7.5s-3.357-7.5-7.5-7.5h-75.477c-5.831 0-10.575-4.744-10.575-10.575v-460.938c0-5.831 4.744-10.575 10.575-10.575h417.791c5.831 0 10.574 4.744 10.574 10.575v115.268c0 4.142 3.357 7.5 7.5 7.5s7.5-3.358 7.5-7.5v-115.268c0-14.102-11.472-25.575-25.574-25.575z"/><path d="m483.014 168.105c-4.143 0-7.5 3.358-7.5 7.5v310.907c0 5.831-4.743 10.575-10.574 10.575h-307.387c-4.143 0-7.5 3.358-7.5 7.5s3.357 7.5 7.5 7.5h307.387c14.102 0 25.574-11.473 25.574-25.575v-310.907c0-4.142-3.357-7.5-7.5-7.5z"/><path d="m65.692 78.934c-3.133.977-5.268 3.878-5.268 7.16v42.195c0 4.142 3.357 7.5 7.5 7.5s7.5-3.358 7.5-7.5v-18.136l14.859 21.516c2.083 3.013 5.731 4.336 9.081 3.289 3.452-1.077 5.683-4.254 5.683-8.166l-.395-40.849c-.041-4.143-3.443-7.504-7.572-7.427-4.143.04-7.468 3.43-7.428 7.572l.18 18.532-15.737-22.788c-1.864-2.701-5.265-3.874-8.403-2.898z"/><path d="m120.679 77.919c-4.143 0-7.5 3.358-7.5 7.5v28.809c0 12.09 9.766 21.56 22.232 21.56 4.736 0 9.346-1.019 13.379-3.644 3.761-2.449 6.714-6.059 8.312-10.258.929-2.441 1.393-5.048 1.393-7.658v-28.809c0-4.142-3.357-7.5-7.5-7.5s-7.5 3.358-7.5 7.5v28.809c0 8.822-15.315 8.616-15.315-.009 0-.568 0-28.8 0-28.8-.001-4.142-3.358-7.5-7.501-7.5z"/><path d="m431.54 120.789c-3.545 0-6.935-1.405-9.066-3.757-2.783-3.071-7.526-3.301-10.594-.521-3.069 2.781-3.303 7.524-.521 10.594 5.002 5.52 12.357 8.685 20.182 8.685 9.938 0 18.299-6.425 19.879-15.277 1.84-10.305-6.197-17.167-13.639-19.912-4.723-1.742-9.148-3.63-10.928-4.403-.067-.109-.11-.268-.075-.509.095-.661.735-1.216 1.757-1.524 4.704-1.419 9.282 2.109 9.479 2.263 3.172 2.612 7.86 2.188 10.51-.963 2.665-3.171 2.255-7.902-.916-10.567-3.95-3.321-13.325-8.13-23.399-5.095-6.644 2.001-11.348 7.271-12.278 13.755-.432 3.009-.01 6.119 1.269 8.882.627 1.356 1.453 2.618 2.441 3.737 1.718 1.946 3.711 3.126 6.054 4.134 3.594 1.545 7.224 3.01 10.894 4.364 2.855 1.053 4.205 2.408 4.063 3.202-.182 1.014-1.867 2.912-5.112 2.912z"/><path d="m393.7 128.289v-25.117c.05-.243.525-2.007 4.313-5.993 1.79-1.884 3.362-2.913 3.955-3.268 3.554-2.127 4.711-6.732 2.584-10.287s-6.733-4.712-10.287-2.584c-.484.289-1.048.653-1.663 1.081-1.316-2.16-3.687-3.607-6.402-3.607-4.143 0-7.5 3.358-7.5 7.5v42.274c0 4.142 3.357 7.5 7.5 7.5s7.5-3.357 7.5-7.499z"/><path d="m224.103 128.289c0 4.142 3.357 7.5 7.5 7.5s7.5-3.358 7.5-7.5v-21.457c.284-6.583-.047-15.945-5.879-22.046-3.575-3.74-8.57-5.636-14.845-5.636-5.532 0-10.234 1.666-13.861 4.647-3.905-3.756-8.887-4.865-13.4-4.865-3.431 0-6.594.744-9.405 2.115-1.375-1.7-3.475-2.789-5.832-2.789-4.143 0-7.5 3.358-7.5 7.5v42.532c0 4.142 3.357 7.5 7.5 7.5s7.5-3.358 7.5-7.5v-21.936c0-.02.003-.038.003-.058.003-3.426.611-7.453 2.926-10.135 1.216-1.409 3.116-2.288 4.985-2.22.922.033 1.836.301 2.584.852 2.626 1.939 2.472 6.659 2.556 9.524.163 5.532.013 11.105.013 16.645v7.327c0 4.142 3.357 7.5 7.5 7.5s7.5-3.358 7.5-7.5v-19.016c0-1.959.01-3.887.011-5.843.002-9.28 5.028-9.28 6.922-9.28 6.565 0 5.951 7.269 5.73 12.179-.005.112-.008 21.96-.008 21.96z"/><path d="m366.609 113.18c1.41-1.407 2.202-3.317 2.202-5.309v-2.938c0-14.567-11.851-26.419-26.418-26.419-6.923 0-13.661 2.788-18.576 7.66-2.412 2.39-4.361 5.242-5.703 8.361-.684 1.59-1.21 3.247-1.568 4.94-.559 2.642-.652 5.075-.515 7.767.322 6.349 2.053 12.343 6.065 17.488 5.329 6.834 13.924 11.058 22.59 11.058 3.204 0 6.26-.531 9.08-1.579 3.883-1.442 5.861-5.76 4.419-9.643-1.441-3.883-5.761-5.862-9.642-4.419-1.145.425-2.442.641-3.857.641-4.455 0-8.405-2.157-10.895-5.47 0 0 27.505.053 27.52.053 1.986.001 3.892-.788 5.298-2.191zm-34.651-12.866c1.78-4.003 5.788-6.8 10.435-6.8 4.669 0 8.692 2.817 10.46 6.84z"/><path d="m256.555 57.752c-4.143 0-7.5 3.358-7.5 7.5v63.037c0 4.142 3.357 7.5 7.5 7.5 2.865 0 5.353-1.608 6.616-3.969 4.261 2.518 9.223 3.969 14.521 3.969 15.79 0 28.637-12.847 28.637-28.637s-12.847-28.637-28.637-28.637c-4.934 0-9.58 1.254-13.637 3.46v-16.723c0-4.142-3.357-7.5-7.5-7.5zm21.137 35.763c7.52 0 13.637 6.117 13.637 13.637s-6.117 13.637-13.637 13.637-13.637-6.118-13.637-13.637 6.117-13.637 13.637-13.637z"/><path d="m65.948 174.27h380.197c4.143 0 7.5-3.358 7.5-7.5s-3.357-7.5-7.5-7.5h-380.197c-4.143 0-7.5 3.358-7.5 7.5s3.357 7.5 7.5 7.5z"/><path d="m285.34 453.702c.982.432 2.007.636 3.015.636 2.885 0 5.635-1.674 6.87-4.484l40.943-93.14c2.133-4.851-1.59-10.518-6.866-10.518-.084 0-51.239 0-51.239 0-4.143 0-7.5 3.358-7.5 7.5s3.357 7.5 7.5 7.5h39.75l-36.32 82.622c-1.667 3.792.055 8.217 3.847 9.884z"/><path d="m361.222 419.902c0 18.987 15.447 34.434 34.434 34.434s34.434-15.447 34.434-34.434c0-11.594-5.766-21.86-14.575-28.103 4.511-4.848 7.278-11.339 7.278-18.467 0-14.963-12.174-27.136-27.137-27.136s-27.136 12.173-27.136 27.136c0 7.128 2.766 13.619 7.277 18.466-8.809 6.243-14.575 16.51-14.575 28.104zm34.434-58.706c6.692 0 12.137 5.444 12.137 12.136s-5.444 12.136-12.137 12.136c-6.691 0-12.136-5.444-12.136-12.136s5.444-12.136 12.136-12.136zm0 39.272c10.716 0 19.434 8.718 19.434 19.434s-8.718 19.434-19.434 19.434-19.434-8.718-19.434-19.434 8.718-19.434 19.434-19.434z"/><path d="m125.612 315.145c4.143 0 7.5-3.358 7.5-7.5v-92.922c0-4.142-3.357-7.5-7.5-7.5h-19.862c-4.143 0-7.5 3.358-7.5 7.5s3.357 7.5 7.5 7.5h12.361v85.422c.001 4.142 3.358 7.5 7.501 7.5z"/><path d="m115.684 454.336c.243 0 .49-.002.734-.007 18.73-.377 34.163-15.317 35.134-34.012.516-9.956-2.973-19.412-9.823-26.627-6.754-7.114-16.248-11.193-26.048-11.193-3.889 0-7.09.254-9.92.733l3.852-23.248h28.553c4.143 0 7.5-3.358 7.5-7.5s-3.357-7.5-7.5-7.5h-34.912c-3.669 0-6.8 2.654-7.399 6.274l-6.916 41.746c-.462 2.792.697 5.601 2.981 7.272 2.281 1.67 5.321 1.908 7.841.626 5.005-2.547 10.32-3.404 15.921-3.404 5.789 0 11.177 2.316 15.17 6.521 3.99 4.203 6.022 9.715 5.721 15.522-.564 10.879-9.55 19.573-20.456 19.792-.144.003-.285.004-.428.004-11.414 0-20.927-9.515-20.927-20.92 0-4.142-3.357-7.5-7.5-7.5s-7.5 3.358-7.5 7.5c0 1.675.116 3.357.346 5.001 2.475 17.748 17.7 30.921 35.576 30.92z"/><path d="m432.332 282.215c0-4.142-3.357-7.5-7.5-7.5h-4.33c.142-23.029.229-48.8-.053-52.179-.516-6.195-4.151-11.221-9.262-12.804-2.413-.747-8.661-1.708-14.527 5.489-5.259 6.452-31.533 53.92-36.747 63.371-1.281 2.323-1.24 5.151.109 7.436s3.805 3.687 6.458 3.687h38.919c-.051 7.042-.104 13.823-.156 19.86-.035 4.142 3.293 7.529 7.436 7.564h.065c4.112 0 7.463-3.315 7.499-7.435.03-3.584.093-10.966.158-19.99h4.431c4.142.001 7.5-3.357 7.5-7.499zm-26.834-7.5h-26.285c10.564-18.969 21.254-37.71 26.393-45.986.071 8.681.006 27.033-.108 45.986z"/><path d="m240.4 242.458c.328-1.747.509-3.52.509-5.317 0-17.247-14.031-31.277-31.277-31.277-14.913 0-27.819 10.608-30.689 25.223-.798 4.065 1.85 8.007 5.914 8.805 4.073.8 8.007-1.851 8.805-5.914 1.492-7.599 8.209-13.114 15.971-13.114 8.831 0 16.042 7.068 16.271 15.845-.937 7.341-4.779 13.9-8.978 19.899-14.755 21.083-23.563 32.615-28.295 38.811-5.633 7.375-7.53 9.859-6.192 14.207.763 2.481 2.653 4.389 5.186 5.233 1.011.336 36.628.695 49.818.53 4.142-.052 7.457-3.452 7.404-7.594-.052-4.11-3.399-7.406-7.497-7.406-.032 0-.064 0-.097 0-11.893.149-24.624.231-33.712.208 5.204-6.86 13.417-17.877 25.674-35.39 4.729-6.757 9.625-14.45 11.185-22.749z"/><path d="m303.682 302.14c-8.854 0-16.276-7.429-16.276-16.277 0-4.142-3.357-7.5-7.5-7.5s-7.5 3.358-7.5 7.5c0 1.456.102 2.921.302 4.353 2.142 15.349 15.458 26.924 30.975 26.924 17.246 0 31.277-14.031 31.277-31.277 0-9.51-4.272-18.036-10.991-23.777 6.719-5.741 10.991-14.267 10.991-23.777 0-17.246-14.031-31.277-31.277-31.277-14.913 0-27.819 10.608-30.689 25.223-.798 4.064 1.85 8.007 5.914 8.805 4.073.8 8.007-1.851 8.805-5.914 1.492-7.599 8.209-13.113 15.971-13.113 8.976 0 16.277 7.302 16.277 16.277s-7.302 16.277-16.277 16.277c-4.143 0-7.5 3.358-7.5 7.5s3.357 7.5 7.5 7.5c8.976 0 16.277 7.302 16.277 16.277-.002 8.974-7.303 16.276-16.279 16.276z"/><path d="m203.143 452.011c2.831.739 5.755 1.11 8.681 1.11 18.952 0 34.371-15.419 34.371-34.371s-15.419-34.371-34.371-34.371c-3.427 0-6.736.511-9.862 1.449 8.868-16.882 20.569-25.927 20.833-26.127 3.31-2.475 3.994-7.164 1.525-10.482-2.472-3.324-7.17-4.016-10.494-1.542-1.262.939-30.814 23.38-35.945 65.677-2.102 17.32 7.91 34.125 25.262 38.657zm8.681-52.631c10.682 0 19.371 8.689 19.371 19.371s-8.689 19.371-19.371 19.371c-10.681 0-19.37-8.69-19.37-19.371s8.689-19.371 19.37-19.371z"/></g></g></svg>